{
	"asset":{
		"generator":"Khronos glTF Blender I/O v4.3.47",
		"version":"2.0"
	},
	"scene":0,
	"scenes":[
		{
			"name":"Scene",
			"nodes":[
				160
			]
		}
	],
	"nodes":[
		{
			"mesh":0,
			"name":"b_Bee_MAT_0"
		},
		{
			"children":[
				0
			],
			"name":"b",
			"rotation":[
				0,
				0,
				-1.2060349945386406e-05,
				1
			],
			"translation":[
				0.2793315649032593,
				2.454624652862549,
				0
			]
		},
		{
			"name":"transform16"
		},
		{
			"children":[
				2
			],
			"name":"polySurface100",
			"translation":[
				-0.2750042676925659,
				-1.596610188484192,
				-0.005361186806112528
			]
		},
		{
			"name":"transform13"
		},
		{
			"children":[
				4
			],
			"name":"polySurface101",
			"translation":[
				-0.2750042676925659,
				-1.596610188484192,
				-0.005361186806112528
			]
		},
		{
			"name":"transform15"
		},
		{
			"children":[
				6
			],
			"name":"polySurface102",
			"translation":[
				-0.2750042676925659,
				-1.596610188484192,
				-0.005361186806112528
			]
		},
		{
			"name":"transform14"
		},
		{
			"children":[
				8
			],
			"name":"polySurface103",
			"translation":[
				-0.2750042676925659,
				-1.596610188484192,
				-0.005361186806112528
			]
		},
		{
			"name":"transform11"
		},
		{
			"children":[
				10
			],
			"name":"polySurface104",
			"translation":[
				-0.2750042676925659,
				-1.596610188484192,
				-0.005361186806112528
			]
		},
		{
			"name":"transform8"
		},
		{
			"children":[
				12
			],
			"name":"polySurface105",
			"translation":[
				-0.2750042676925659,
				-1.596610188484192,
				-0.005361186806112528
			]
		},
		{
			"name":"transform9"
		},
		{
			"children":[
				14
			],
			"name":"polySurface106",
			"translation":[
				-0.2750042676925659,
				-1.596610188484192,
				-0.005361186806112528
			]
		},
		{
			"name":"transform10"
		},
		{
			"children":[
				16
			],
			"name":"polySurface107",
			"translation":[
				-0.2750042676925659,
				-1.596610188484192,
				-0.005361186806112528
			]
		},
		{
			"name":"transform6"
		},
		{
			"children":[
				18
			],
			"name":"polySurface108",
			"translation":[
				-0.2750042676925659,
				-1.596610188484192,
				-0.005361186806112528
			]
		},
		{
			"name":"transform7"
		},
		{
			"children":[
				20
			],
			"name":"polySurface109",
			"translation":[
				-0.2750042676925659,
				-1.596610188484192,
				-0.005361186806112528
			]
		},
		{
			"name":"transform24"
		},
		{
			"children":[
				22
			],
			"name":"polySurface110",
			"translation":[
				-0.2750042676925659,
				-1.596610188484192,
				-0.005361186806112528
			]
		},
		{
			"name":"transform25"
		},
		{
			"children":[
				24
			],
			"name":"polySurface111",
			"translation":[
				-0.2750042676925659,
				-1.596610188484192,
				-0.005361186806112528
			]
		},
		{
			"name":"transform27"
		},
		{
			"children":[
				26
			],
			"name":"polySurface112",
			"translation":[
				-0.2750042676925659,
				-1.596610188484192,
				-0.005361186806112528
			]
		},
		{
			"name":"transform26"
		},
		{
			"children":[
				28
			],
			"name":"polySurface113",
			"translation":[
				-0.2750042676925659,
				-1.596610188484192,
				-0.005361186806112528
			]
		},
		{
			"name":"transform28"
		},
		{
			"children":[
				30
			],
			"name":"polySurface114",
			"translation":[
				-0.2750042676925659,
				-1.596610188484192,
				-0.005361186806112528
			]
		},
		{
			"name":"transform35"
		},
		{
			"children":[
				32
			],
			"name":"polySurface115",
			"translation":[
				-0.2750042676925659,
				-1.596610188484192,
				-0.005361186806112528
			]
		},
		{
			"name":"transform36"
		},
		{
			"children":[
				34
			],
			"name":"polySurface116",
			"translation":[
				-0.2750042676925659,
				-1.596610188484192,
				-0.005361186806112528
			]
		},
		{
			"name":"transform37"
		},
		{
			"children":[
				36
			],
			"name":"polySurface117",
			"translation":[
				-0.2750042676925659,
				-1.596610188484192,
				-0.005361186806112528
			]
		},
		{
			"name":"transform38"
		},
		{
			"children":[
				38
			],
			"name":"polySurface118",
			"translation":[
				-0.2750042676925659,
				-1.596610188484192,
				-0.005361186806112528
			]
		},
		{
			"name":"transform29"
		},
		{
			"children":[
				40
			],
			"name":"polySurface119",
			"translation":[
				-0.2750042676925659,
				-1.596610188484192,
				-0.005361186806112528
			]
		},
		{
			"name":"transform30"
		},
		{
			"children":[
				42
			],
			"name":"polySurface120",
			"translation":[
				-0.2750042676925659,
				-1.596610188484192,
				-0.005361186806112528
			]
		},
		{
			"name":"transform31"
		},
		{
			"children":[
				44
			],
			"name":"polySurface121",
			"translation":[
				-0.2750042676925659,
				-1.596610188484192,
				-0.005361186806112528
			]
		},
		{
			"name":"transform32"
		},
		{
			"children":[
				46
			],
			"name":"polySurface122",
			"translation":[
				-0.2750042676925659,
				-1.596610188484192,
				-0.005361186806112528
			]
		},
		{
			"name":"transform33"
		},
		{
			"children":[
				48
			],
			"name":"polySurface123",
			"translation":[
				-0.2750042676925659,
				-1.596610188484192,
				-0.005361186806112528
			]
		},
		{
			"name":"transform34"
		},
		{
			"children":[
				50
			],
			"name":"polySurface124",
			"translation":[
				-0.2750042676925659,
				-1.596610188484192,
				-0.005361186806112528
			]
		},
		{
			"name":"transform44"
		},
		{
			"children":[
				52
			],
			"name":"polySurface125",
			"translation":[
				-0.2750042676925659,
				-1.596610188484192,
				-0.005361186806112528
			]
		},
		{
			"name":"transform45"
		},
		{
			"children":[
				54
			],
			"name":"polySurface126",
			"translation":[
				-0.2750042676925659,
				-1.596610188484192,
				-0.005361186806112528
			]
		},
		{
			"name":"transform46"
		},
		{
			"children":[
				56
			],
			"name":"polySurface127",
			"translation":[
				-0.2750042676925659,
				-1.596610188484192,
				-0.005361186806112528
			]
		},
		{
			"name":"transform42"
		},
		{
			"children":[
				58
			],
			"name":"polySurface128",
			"translation":[
				-0.2750042676925659,
				-1.596610188484192,
				-0.005361186806112528
			]
		},
		{
			"name":"transform43"
		},
		{
			"children":[
				60
			],
			"name":"polySurface129",
			"translation":[
				-0.2750042676925659,
				-1.596610188484192,
				-0.005361186806112528
			]
		},
		{
			"name":"transform41"
		},
		{
			"children":[
				62
			],
			"name":"polySurface130",
			"translation":[
				-0.2750042676925659,
				-1.596610188484192,
				-0.005361186806112528
			]
		},
		{
			"name":"transform40"
		},
		{
			"children":[
				64
			],
			"name":"polySurface131",
			"translation":[
				-0.2750042676925659,
				-1.596610188484192,
				-0.005361186806112528
			]
		},
		{
			"name":"transform39"
		},
		{
			"children":[
				66
			],
			"name":"polySurface132",
			"translation":[
				-0.2750042676925659,
				-1.596610188484192,
				-0.005361186806112528
			]
		},
		{
			"name":"transform19"
		},
		{
			"children":[
				68
			],
			"name":"polySurface133",
			"translation":[
				-0.2750042676925659,
				-1.596610188484192,
				-0.005361186806112528
			]
		},
		{
			"name":"transform20"
		},
		{
			"children":[
				70
			],
			"name":"polySurface134",
			"translation":[
				-0.2750042676925659,
				-1.596610188484192,
				-0.005361186806112528
			]
		},
		{
			"name":"transform21"
		},
		{
			"children":[
				72
			],
			"name":"polySurface135",
			"translation":[
				-0.2750042676925659,
				-1.596610188484192,
				-0.005361186806112528
			]
		},
		{
			"name":"transform22"
		},
		{
			"children":[
				74
			],
			"name":"polySurface136",
			"translation":[
				-0.2750042676925659,
				-1.596610188484192,
				-0.005361186806112528
			]
		},
		{
			"name":"transform23"
		},
		{
			"children":[
				76
			],
			"name":"polySurface137",
			"translation":[
				-0.2750042676925659,
				-1.596610188484192,
				-0.005361186806112528
			]
		},
		{
			"name":"transform18"
		},
		{
			"children":[
				78
			],
			"name":"polySurface138",
			"translation":[
				-0.2750042676925659,
				-1.596610188484192,
				-0.005361186806112528
			]
		},
		{
			"name":"transform17"
		},
		{
			"children":[
				80
			],
			"name":"polySurface139",
			"translation":[
				-0.2750042676925659,
				-1.596610188484192,
				-0.005361186806112528
			]
		},
		{
			"name":"transform48"
		},
		{
			"children":[
				82
			],
			"name":"polySurface140",
			"translation":[
				-0.2750042676925659,
				-1.596610188484192,
				-0.005361186806112528
			]
		},
		{
			"name":"transform47"
		},
		{
			"children":[
				84
			],
			"name":"polySurface141",
			"translation":[
				-0.2750042676925659,
				-1.596610188484192,
				-0.005361186806112528
			]
		},
		{
			"name":"transform58"
		},
		{
			"children":[
				86
			],
			"name":"polySurface142",
			"translation":[
				-0.2750042676925659,
				-1.596610188484192,
				-0.005361186806112528
			]
		},
		{
			"name":"transform59"
		},
		{
			"children":[
				88
			],
			"name":"polySurface143",
			"translation":[
				-0.2750042676925659,
				-1.596610188484192,
				-0.005361186806112528
			]
		},
		{
			"name":"transform60"
		},
		{
			"children":[
				90
			],
			"name":"polySurface144",
			"translation":[
				-0.2750042676925659,
				-1.596610188484192,
				-0.005361186806112528
			]
		},
		{
			"name":"transform55"
		},
		{
			"children":[
				92
			],
			"name":"polySurface145",
			"translation":[
				-0.2750042676925659,
				-1.596610188484192,
				-0.005361186806112528
			]
		},
		{
			"name":"transform56"
		},
		{
			"children":[
				94
			],
			"name":"polySurface146",
			"translation":[
				-0.2750042676925659,
				-1.596610188484192,
				-0.005361186806112528
			]
		},
		{
			"name":"transform57"
		},
		{
			"children":[
				96
			],
			"name":"polySurface147",
			"translation":[
				-0.2750042676925659,
				-1.596610188484192,
				-0.005361186806112528
			]
		},
		{
			"name":"transform52"
		},
		{
			"children":[
				98
			],
			"name":"polySurface148",
			"translation":[
				-0.2750042676925659,
				-1.596610188484192,
				-0.005361186806112528
			]
		},
		{
			"name":"transform54"
		},
		{
			"children":[
				100
			],
			"name":"polySurface149",
			"translation":[
				-0.2750042676925659,
				-1.596610188484192,
				-0.005361186806112528
			]
		},
		{
			"name":"transform49"
		},
		{
			"children":[
				102
			],
			"name":"polySurface150",
			"translation":[
				-0.2750042676925659,
				-1.596610188484192,
				-0.005361186806112528
			]
		},
		{
			"name":"transform50"
		},
		{
			"children":[
				104
			],
			"name":"polySurface151",
			"translation":[
				-0.2750042676925659,
				-1.596610188484192,
				-0.005361186806112528
			]
		},
		{
			"name":"transform51"
		},
		{
			"children":[
				106
			],
			"name":"polySurface152",
			"translation":[
				-0.2750042676925659,
				-1.596610188484192,
				-0.005361186806112528
			]
		},
		{
			"name":"transform53"
		},
		{
			"children":[
				108
			],
			"name":"polySurface153",
			"translation":[
				-0.2750042676925659,
				-1.596610188484192,
				-0.005361186806112528
			]
		},
		{
			"name":"transform64"
		},
		{
			"children":[
				110
			],
			"name":"polySurface154",
			"translation":[
				-0.2750042676925659,
				-1.596610188484192,
				-0.005361186806112528
			]
		},
		{
			"name":"transform65"
		},
		{
			"children":[
				112
			],
			"name":"polySurface155",
			"translation":[
				-0.2750042676925659,
				-1.596610188484192,
				-0.005361186806112528
			]
		},
		{
			"name":"transform63"
		},
		{
			"children":[
				114
			],
			"name":"polySurface156",
			"translation":[
				-0.2750042676925659,
				-1.596610188484192,
				-0.005361186806112528
			]
		},
		{
			"name":"transform62"
		},
		{
			"children":[
				116
			],
			"name":"polySurface157",
			"translation":[
				-0.2750042676925659,
				-1.596610188484192,
				-0.005361186806112528
			]
		},
		{
			"name":"transform61"
		},
		{
			"children":[
				118
			],
			"name":"polySurface158",
			"translation":[
				-0.2750042676925659,
				-1.596610188484192,
				-0.005361186806112528
			]
		},
		{
			"name":"transform67"
		},
		{
			"children":[
				120
			],
			"name":"polySurface159",
			"translation":[
				-0.2750042676925659,
				-1.596610188484192,
				-0.005361186806112528
			]
		},
		{
			"name":"transform68"
		},
		{
			"children":[
				122
			],
			"name":"polySurface160",
			"translation":[
				-0.2750042676925659,
				-1.596610188484192,
				-0.005361186806112528
			]
		},
		{
			"name":"transform69"
		},
		{
			"children":[
				124
			],
			"name":"polySurface161",
			"translation":[
				-0.2750042676925659,
				-1.596610188484192,
				-0.005361186806112528
			]
		},
		{
			"name":"transform70"
		},
		{
			"children":[
				126
			],
			"name":"polySurface162",
			"translation":[
				-0.2750042676925659,
				-1.596610188484192,
				-0.005361186806112528
			]
		},
		{
			"name":"transform76"
		},
		{
			"children":[
				128
			],
			"name":"polySurface163",
			"translation":[
				-0.2750042676925659,
				-1.596610188484192,
				-0.005361186806112528
			]
		},
		{
			"name":"transform74"
		},
		{
			"children":[
				130
			],
			"name":"polySurface164",
			"translation":[
				-0.2750042676925659,
				-1.596610188484192,
				-0.005361186806112528
			]
		},
		{
			"name":"transform72"
		},
		{
			"children":[
				132
			],
			"name":"polySurface165",
			"translation":[
				-0.2750042676925659,
				-1.596610188484192,
				-0.005361186806112528
			]
		},
		{
			"name":"transform71"
		},
		{
			"children":[
				134
			],
			"name":"polySurface166",
			"translation":[
				-0.2750042676925659,
				-1.596610188484192,
				-0.005361186806112528
			]
		},
		{
			"name":"transform75"
		},
		{
			"children":[
				136
			],
			"name":"polySurface167",
			"translation":[
				-0.2750042676925659,
				-1.596610188484192,
				-0.005361186806112528
			]
		},
		{
			"name":"transform73"
		},
		{
			"children":[
				138
			],
			"name":"polySurface168",
			"translation":[
				-0.2750042676925659,
				-1.596610188484192,
				-0.005361186806112528
			]
		},
		{
			"name":"transform66"
		},
		{
			"children":[
				140
			],
			"name":"polySurface169",
			"translation":[
				-0.2750042676925659,
				-1.596610188484192,
				-0.005361186806112528
			]
		},
		{
			"name":"transform5"
		},
		{
			"children":[
				142
			],
			"name":"polySurface98",
			"translation":[
				-0.2750042676925659,
				-1.596610188484192,
				-0.005361186806112528
			]
		},
		{
			"name":"transform12"
		},
		{
			"children":[
				144
			],
			"name":"polySurface99",
			"translation":[
				-0.2750042676925659,
				-1.596610188484192,
				-0.005361186806112528
			]
		},
		{
			"name":"transform4",
			"translation":[
				-0.2750042676925659,
				-1.596610188484192,
				-0.005361186806112528
			]
		},
		{
			"children":[
				3,
				5,
				7,
				9,
				11,
				13,
				15,
				17,
				19,
				21,
				23,
				25,
				27,
				29,
				31,
				33,
				35,
				37,
				39,
				41,
				43,
				45,
				47,
				49,
				51,
				53,
				55,
				57,
				59,
				61,
				63,
				65,
				67,
				69,
				71,
				73,
				75,
				77,
				79,
				81,
				83,
				85,
				87,
				89,
				91,
				93,
				95,
				97,
				99,
				101,
				103,
				105,
				107,
				109,
				111,
				113,
				115,
				117,
				119,
				121,
				123,
				125,
				127,
				129,
				131,
				133,
				135,
				137,
				139,
				141,
				143,
				145,
				146
			],
			"name":"Bee",
			"translation":[
				0.27500414848327637,
				2.5966098308563232,
				0.0053611863404512405
			]
		},
		{
			"name":"Flower",
			"translation":[
				-0.20156800746917725,
				0.9849708080291748,
				0
			]
		},
		{
			"mesh":1,
			"name":"l_Bee_MAT_0"
		},
		{
			"children":[
				149
			],
			"name":"l",
			"rotation":[
				0.12098362296819687,
				0,
				0,
				0.9926545023918152
			],
			"translation":[
				0.20294296741485596,
				2.8329367637634277,
				0.17867207527160645
			]
		},
		{
			"name":"L_wing",
			"rotation":[
				0.1198095977306366,
				0,
				0,
				0.9927968978881836
			],
			"translation":[
				0.09202587604522705,
				2.1643030643463135,
				0.7332832217216492
			]
		},
		{
			"name":"transform3"
		},
		{
			"children":[
				152
			],
			"name":"polySurface33"
		},
		{
			"mesh":2,
			"name":"r_Bee_MAT_0"
		},
		{
			"children":[
				154
			],
			"name":"r",
			"rotation":[
				-0.14780941605567932,
				0,
				0,
				0.9890158772468567
			],
			"translation":[
				0.06280529499053955,
				2.786954402923584,
				-0.16616231203079224
			]
		},
		{
			"name":"R_wing",
			"rotation":[
				-0.14780941605567932,
				0,
				0,
				0.9890158772468567
			],
			"translation":[
				0.09202587604522705,
				2.1556880474090576,
				-0.7224767208099365
			]
		},
		{
			"children":[
				1,
				147,
				148,
				150,
				151,
				153,
				155,
				156
			],
			"name":"RootNode"
		},
		{
			"children":[
				157
			],
			"name":"Object_2"
		},
		{
			"children":[
				158
			],
			"name":"32bde958fb4643638f790cd30ef6d0f4.fbx",
			"rotation":[
				0.70710688829422,
				0,
				0,
				0.7071066498756409
			]
		},
		{
			"children":[
				159
			],
			"name":"Sketchfab_model",
			"rotation":[
				-0.70710688829422,
				0,
				0,
				0.7071066498756409
			],
			"scale":[
				0.157060906291008,
				0.1570609211921692,
				0.1570609211921692
			],
			"translation":[
				-0.22163522243499756,
				0,
				0
			]
		}
	],
	"animations":[
		{
			"channels":[
				{
					"sampler":0,
					"target":{
						"node":1,
						"path":"rotation"
					}
				},
				{
					"sampler":1,
					"target":{
						"node":147,
						"path":"translation"
					}
				},
				{
					"sampler":2,
					"target":{
						"node":147,
						"path":"rotation"
					}
				},
				{
					"sampler":3,
					"target":{
						"node":150,
						"path":"rotation"
					}
				},
				{
					"sampler":4,
					"target":{
						"node":151,
						"path":"rotation"
					}
				},
				{
					"sampler":5,
					"target":{
						"node":155,
						"path":"rotation"
					}
				},
				{
					"sampler":6,
					"target":{
						"node":156,
						"path":"rotation"
					}
				}
			],
			"name":"Take 001",
			"samplers":[
				{
					"input":11,
					"interpolation":"LINEAR",
					"output":12
				},
				{
					"input":13,
					"interpolation":"LINEAR",
					"output":14
				},
				{
					"input":13,
					"interpolation":"LINEAR",
					"output":15
				},
				{
					"input":13,
					"interpolation":"LINEAR",
					"output":16
				},
				{
					"input":13,
					"interpolation":"LINEAR",
					"output":17
				},
				{
					"input":13,
					"interpolation":"LINEAR",
					"output":18
				},
				{
					"input":13,
					"interpolation":"LINEAR",
					"output":19
				}
			]
		}
	],
	"materials":[
		{
			"doubleSided":true,
			"name":"Bee_MAT",
			"pbrMetallicRoughness":{
				"baseColorTexture":{
					"index":0
				},
				"metallicFactor":0,
				"roughnessFactor":0.6000000238418579
			}
		}
	],
	"meshes":[
		{
			"name":"b_Bee_MAT_0",
			"primitives":[
				{
					"attributes":{
						"POSITION":0,
						"NORMAL":1,
						"TEXCOORD_0":2
					},
					"indices":3,
					"material":0
				}
			]
		},
		{
			"name":"l_Bee_MAT_0",
			"primitives":[
				{
					"attributes":{
						"POSITION":4,
						"NORMAL":5,
						"TEXCOORD_0":6
					},
					"indices":7,
					"material":0
				}
			]
		},
		{
			"name":"r_Bee_MAT_0",
			"primitives":[
				{
					"attributes":{
						"POSITION":8,
						"NORMAL":9,
						"TEXCOORD_0":10
					},
					"indices":7,
					"material":0
				}
			]
		}
	],
	"textures":[
		{
			"sampler":0,
			"source":0
		}
	],
	"images":[
		{
			"mimeType":"image/png",
			"name":"Bee_MAT_baseColor",
			"uri":"Bee_MAT_baseColor.png"
		}
	],
	"accessors":[
		{
			"bufferView":0,
			"componentType":5126,
			"count":304,
			"max":[
				0.9837799668312073,
				-0.08514315634965897,
				0.5
			],
			"min":[
				-0.9601497054100037,
				-1.6025440692901611,
				-0.5
			],
			"type":"VEC3"
		},
		{
			"bufferView":1,
			"componentType":5126,
			"count":304,
			"type":"VEC3"
		},
		{
			"bufferView":2,
			"componentType":5126,
			"count":304,
			"type":"VEC2"
		},
		{
			"bufferView":3,
			"componentType":5123,
			"count":432,
			"type":"SCALAR"
		},
		{
			"bufferView":4,
			"componentType":5126,
			"count":216,
			"max":[
				0.3800959289073944,
				-0.34841275215148926,
				0.9684262275695801
			],
			"min":[
				-0.397204726934433,
				-0.791351318359375,
				0.008474081754684448
			],
			"type":"VEC3"
		},
		{
			"bufferView":5,
			"componentType":5126,
			"count":216,
			"type":"VEC3"
		},
		{
			"bufferView":6,
			"componentType":5126,
			"count":216,
			"type":"VEC2"
		},
		{
			"bufferView":7,
			"componentType":5123,
			"count":324,
			"type":"SCALAR"
		},
		{
			"bufferView":8,
			"componentType":5126,
			"count":216,
			"max":[
				0.5187479257583618,
				-0.31320619583129883,
				-5.97536563873291e-05
			],
			"min":[
				-0.2585543692111969,
				-0.7557764053344727,
				-0.9601529240608215
			],
			"type":"VEC3"
		},
		{
			"bufferView":9,
			"componentType":5126,
			"count":216,
			"type":"VEC3"
		},
		{
			"bufferView":10,
			"componentType":5126,
			"count":216,
			"type":"VEC2"
		},
		{
			"bufferView":11,
			"componentType":5126,
			"count":235,
			"max":[
				9.791666666666666
			],
			"min":[
				0.041666666666666664
			],
			"type":"SCALAR"
		},
		{
			"bufferView":12,
			"componentType":5126,
			"count":235,
			"type":"VEC4"
		},
		{
			"bufferView":13,
			"componentType":5126,
			"count":236,
			"max":[
				9.833333333333334
			],
			"min":[
				0.041666666666666664
			],
			"type":"SCALAR"
		},
		{
			"bufferView":14,
			"componentType":5126,
			"count":236,
			"type":"VEC3"
		},
		{
			"bufferView":15,
			"componentType":5126,
			"count":236,
			"type":"VEC4"
		},
		{
			"bufferView":16,
			"componentType":5126,
			"count":236,
			"type":"VEC4"
		},
		{
			"bufferView":17,
			"componentType":5126,
			"count":236,
			"type":"VEC4"
		},
		{
			"bufferView":18,
			"componentType":5126,
			"count":236,
			"type":"VEC4"
		},
		{
			"bufferView":19,
			"componentType":5126,
			"count":236,
			"type":"VEC4"
		}
	],
	"bufferViews":[
		{
			"buffer":0,
			"byteLength":3648,
			"byteOffset":0,
			"target":34962
		},
		{
			"buffer":0,
			"byteLength":3648,
			"byteOffset":3648,
			"target":34962
		},
		{
			"buffer":0,
			"byteLength":2432,
			"byteOffset":7296,
			"target":34962
		},
		{
			"buffer":0,
			"byteLength":864,
			"byteOffset":9728,
			"target":34963
		},
		{
			"buffer":0,
			"byteLength":2592,
			"byteOffset":10592,
			"target":34962
		},
		{
			"buffer":0,
			"byteLength":2592,
			"byteOffset":13184,
			"target":34962
		},
		{
			"buffer":0,
			"byteLength":1728,
			"byteOffset":15776,
			"target":34962
		},
		{
			"buffer":0,
			"byteLength":648,
			"byteOffset":17504,
			"target":34963
		},
		{
			"buffer":0,
			"byteLength":2592,
			"byteOffset":18152,
			"target":34962
		},
		{
			"buffer":0,
			"byteLength":2592,
			"byteOffset":20744,
			"target":34962
		},
		{
			"buffer":0,
			"byteLength":1728,
			"byteOffset":23336,
			"target":34962
		},
		{
			"buffer":0,
			"byteLength":940,
			"byteOffset":25064
		},
		{
			"buffer":0,
			"byteLength":3760,
			"byteOffset":26004
		},
		{
			"buffer":0,
			"byteLength":944,
			"byteOffset":29764
		},
		{
			"buffer":0,
			"byteLength":2832,
			"byteOffset":30708
		},
		{
			"buffer":0,
			"byteLength":3776,
			"byteOffset":33540
		},
		{
			"buffer":0,
			"byteLength":3776,
			"byteOffset":37316
		},
		{
			"buffer":0,
			"byteLength":3776,
			"byteOffset":41092
		},
		{
			"buffer":0,
			"byteLength":3776,
			"byteOffset":44868
		},
		{
			"buffer":0,
			"byteLength":3776,
			"byteOffset":48644
		}
	],
	"samplers":[
		{
			"magFilter":9729,
			"minFilter":9987
		}
	],
	"buffers":[
		{
			"byteLength":52420,
			"uri":"bee.bin"
		}
	]
}
